<svg xmlns="http://www.w3.org/2000/svg" xmlns:xlink="http://www.w3.org/1999/xlink" width="500" zoomAndPan="magnify" viewBox="0 0 375 374.999991" height="500" preserveAspectRatio="xMidYMid meet" version="1.0"><defs><g/><clipPath id="285bf8a5ce"><path d="M 121 103 L 220 103 L 220 303 L 121 303 Z M 121 103 " clip-rule="nonzero"/></clipPath><clipPath id="8591242416"><path d="M 55.320312 239.777344 L 214.480469 -6.523438 L 353.695312 83.433594 L 194.535156 329.734375 Z M 55.320312 239.777344 " clip-rule="nonzero"/></clipPath><clipPath id="4b2f7d3ecb"><path d="M 55.320312 239.777344 L 214.480469 -6.523438 L 353.695312 83.433594 L 194.535156 329.734375 Z M 55.320312 239.777344 " clip-rule="nonzero"/></clipPath><clipPath id="60f7ce89a7"><path d="M 191 21 L 288 21 L 288 218 L 191 218 Z M 191 21 " clip-rule="nonzero"/></clipPath><clipPath id="5657370882"><path d="M 55.320312 239.777344 L 214.480469 -6.523438 L 353.695312 83.433594 L 194.535156 329.734375 Z M 55.320312 239.777344 " clip-rule="nonzero"/></clipPath><clipPath id="7012a02300"><path d="M 55.320312 239.777344 L 214.480469 -6.523438 L 353.695312 83.433594 L 194.535156 329.734375 Z M 55.320312 239.777344 " clip-rule="nonzero"/></clipPath></defs><g clip-path="url(#285bf8a5ce)"><g clip-path="url(#8591242416)"><g clip-path="url(#4b2f7d3ecb)"><path fill="#000000" d="M 219.394531 147.144531 L 210.0625 103.730469 L 155.746094 115.402344 C 132.527344 120.394531 117.746094 143.265625 122.738281 166.484375 L 151.902344 302.1875 L 186.539062 249.425781 L 166.972656 158.40625 Z M 219.394531 147.144531 " fill-opacity="1" fill-rule="nonzero"/></g></g></g><g clip-path="url(#60f7ce89a7)"><g clip-path="url(#5657370882)"><g clip-path="url(#7012a02300)"><path fill="#000000" d="M 223.746094 72.542969 L 243.066406 162.441406 L 191.171875 173.597656 L 200.503906 217.011719 L 257.003906 204.867188 C 278.148438 200.324219 291.609375 179.496094 287.0625 158.347656 L 257.558594 21.046875 Z M 223.746094 72.542969 " fill-opacity="1" fill-rule="nonzero"/></g></g></g><g fill="#02093d" fill-opacity="1"><g transform="translate(42.30883, 313.990042)"><g><path d="M 16.875 0.515625 C 12.09375 0.515625 8.359375 -0.550781 5.671875 -2.6875 C 2.992188 -4.832031 1.46875 -7.972656 1.09375 -12.109375 L 8.09375 -13.140625 C 8.78125 -8.242188 11.820312 -5.796875 17.21875 -5.796875 C 19.550781 -5.796875 21.363281 -6.265625 22.65625 -7.203125 C 23.957031 -8.140625 24.609375 -9.445312 24.609375 -11.125 C 24.609375 -12.65625 23.957031 -13.8125 22.65625 -14.59375 C 21.363281 -15.382812 19.28125 -16.125 16.40625 -16.8125 C 13.726562 -17.457031 11.429688 -18.226562 9.515625 -19.125 C 7.609375 -20.03125 6.144531 -21.25 5.125 -22.78125 C 4.113281 -24.3125 3.609375 -26.335938 3.609375 -28.859375 C 3.609375 -31.265625 4.226562 -33.40625 5.46875 -35.28125 C 6.71875 -37.15625 8.429688 -38.628906 10.609375 -39.703125 C 12.796875 -40.773438 15.320312 -41.3125 18.1875 -41.3125 C 21.976562 -41.3125 25.078125 -40.316406 27.484375 -38.328125 C 29.890625 -36.335938 31.304688 -33.601562 31.734375 -30.125 L 25.1875 -29.03125 C 24.382812 -33.007812 21.9375 -35 17.84375 -35 C 15.851562 -35 14.234375 -34.484375 12.984375 -33.453125 C 11.742188 -32.421875 11.125 -31.0625 11.125 -29.375 C 11.125 -27.6875 11.734375 -26.394531 12.953125 -25.5 C 14.179688 -24.601562 16.269531 -23.8125 19.21875 -23.125 C 21.851562 -22.507812 24.128906 -21.789062 26.046875 -20.96875 C 27.960938 -20.144531 29.445312 -19.003906 30.5 -17.546875 C 31.550781 -16.097656 32.078125 -14.113281 32.078125 -11.59375 C 32.078125 -9.21875 31.4375 -7.117188 30.15625 -5.296875 C 28.875 -3.484375 27.09375 -2.0625 24.8125 -1.03125 C 22.539062 0 19.894531 0.515625 16.875 0.515625 Z M 16.875 0.515625 "/></g></g></g><g fill="#02093d" fill-opacity="1"><g transform="translate(84.935761, 313.990042)"><g><path d="M 4.1875 0 L 4.1875 -40.734375 L 11.640625 -40.734375 L 11.640625 0 Z M 4.1875 0 "/></g></g></g><g fill="#02093d" fill-opacity="1"><g transform="translate(109.778442, 313.990042)"><g><path d="M 11.46875 0 L 4.1875 0 L 4.1875 -40.734375 L 18.53125 -40.734375 C 23.8125 -40.734375 27.847656 -39.660156 30.640625 -37.515625 C 33.429688 -35.378906 34.828125 -32.285156 34.828125 -28.234375 C 34.828125 -24.140625 33.316406 -20.929688 30.296875 -18.609375 C 27.273438 -16.296875 22.875 -15.140625 17.09375 -15.140625 L 11.46875 -15.140625 Z M 18.25 -34.65625 L 11.46875 -34.65625 L 11.46875 -21.28125 L 17.5 -21.28125 C 20.9375 -21.28125 23.441406 -21.832031 25.015625 -22.9375 C 26.585938 -24.050781 27.375 -25.773438 27.375 -28.109375 C 27.375 -30.441406 26.632812 -32.113281 25.15625 -33.125 C 23.6875 -34.144531 21.382812 -34.65625 18.25 -34.65625 Z M 18.25 -34.65625 "/></g></g></g><g fill="#02093d" fill-opacity="1"><g transform="translate(154.585364, 313.990042)"><g><path d="M -0.578125 0 L 16.8125 -40.734375 L 23.125 -40.734375 L 39.8125 0 L 32.25 0 L 28.578125 -9.296875 L 10.78125 -9.296875 L 7 0 Z M 13.375 -15.546875 L 26.15625 -15.546875 L 19.859375 -31.5625 Z M 13.375 -15.546875 "/></g></g></g><g fill="#02093d" fill-opacity="1"><g transform="translate(203.063872, 313.990042)"><g><path d="M 4.1875 0 L 4.1875 -40.734375 L 11.640625 -40.734375 L 11.640625 -22.546875 L 28.578125 -40.734375 L 37.640625 -40.734375 L 18.46875 -20.421875 C 20.082031 -19.578125 21.460938 -18.238281 22.609375 -16.40625 L 27.203125 -9.296875 C 28.003906 -8.066406 28.785156 -7.222656 29.546875 -6.765625 C 30.316406 -6.304688 31.273438 -6.078125 32.421875 -6.078125 C 33.796875 -6.078125 35 -6.421875 36.03125 -7.109375 L 37.75 -1.3125 C 37.019531 -0.738281 36.09375 -0.289062 34.96875 0.03125 C 33.84375 0.351562 32.664062 0.515625 31.4375 0.515625 C 27.113281 0.515625 23.75 -1.375 21.34375 -5.15625 L 15.4375 -14.234375 C 14.894531 -15.035156 14.347656 -15.65625 13.796875 -16.09375 C 13.242188 -16.53125 12.523438 -16.847656 11.640625 -17.046875 L 11.640625 0 Z M 4.1875 0 "/></g></g></g><g fill="#02093d" fill-opacity="1"><g transform="translate(248.214987, 313.990042)"><g><path d="M -0.578125 0 L 16.8125 -40.734375 L 23.125 -40.734375 L 39.8125 0 L 32.25 0 L 28.578125 -9.296875 L 10.78125 -9.296875 L 7 0 Z M 13.375 -15.546875 L 26.15625 -15.546875 L 19.859375 -31.5625 Z M 13.375 -15.546875 "/></g></g></g><g fill="#02093d" fill-opacity="1"><g transform="translate(296.693495, 313.990042)"><g><path d="M 36.375 -7.109375 L 38.09375 -1.3125 C 37.332031 -0.738281 36.394531 -0.289062 35.28125 0.03125 C 34.175781 0.351562 33.007812 0.515625 31.78125 0.515625 C 27.5 0.515625 24.132812 -1.375 21.6875 -5.15625 L 15.78125 -14.234375 C 15.164062 -15.179688 14.53125 -15.847656 13.875 -16.234375 C 13.226562 -16.617188 12.523438 -16.8125 11.765625 -16.8125 L 11.46875 -16.8125 L 11.46875 0 L 4.1875 0 L 4.1875 -40.734375 L 16.875 -40.734375 C 22.03125 -40.734375 25.9375 -39.660156 28.59375 -37.515625 C 31.257812 -35.378906 32.59375 -32.4375 32.59375 -28.6875 C 32.59375 -26.425781 32.09375 -24.484375 31.09375 -22.859375 C 30.101562 -21.234375 28.742188 -19.941406 27.015625 -18.984375 C 25.296875 -18.035156 23.347656 -17.425781 21.171875 -17.15625 C 22.316406 -16.539062 23.367188 -15.507812 24.328125 -14.0625 L 27.546875 -9.296875 C 28.378906 -8.066406 29.171875 -7.222656 29.921875 -6.765625 C 30.671875 -6.304688 31.617188 -6.078125 32.765625 -6.078125 C 34.097656 -6.078125 35.300781 -6.421875 36.375 -7.109375 Z M 16.359375 -34.65625 L 11.46875 -34.65625 L 11.46875 -22.65625 L 16 -22.65625 C 19.144531 -22.65625 21.460938 -23.132812 22.953125 -24.09375 C 24.441406 -25.050781 25.1875 -26.582031 25.1875 -28.6875 C 25.1875 -32.664062 22.242188 -34.65625 16.359375 -34.65625 Z M 16.359375 -34.65625 "/></g></g></g></svg>